<?xml version="1.0" encoding="UTF-8" standalone="no"?>
<!-- Created with Inkscape (http://www.inkscape.org/) -->

<svg
   width="179.34265mm"
   height="182.29169mm"
   viewBox="0 0 179.34265 182.29169"
   version="1.1"
   id="svg1"
   xml:space="preserve"
   xmlns:xlink="http://www.w3.org/1999/xlink"
   xmlns="http://www.w3.org/2000/svg"
   xmlns:svg="http://www.w3.org/2000/svg"><defs
     id="defs1"><linearGradient
       id="linearGradient28"><stop
         style="stop-color:#808080;stop-opacity:0;"
         offset="0"
         id="stop30" /><stop
         style="stop-color:#ffffff;stop-opacity:0.5;"
         offset="0.5"
         id="stop32" /><stop
         style="stop-color:#fefefe;stop-opacity:1;"
         offset="1"
         id="stop29" /></linearGradient><linearGradient
       id="swatch28"><stop
         style="stop-color:#ffffff;stop-opacity:1;"
         offset="0"
         id="stop28" /></linearGradient><filter
       id="filter0_b_415_11747-0"
       x="50.039799"
       y="537.38898"
       width="144.429"
       height="144.429"
       filterUnits="userSpaceOnUse"
       color-interpolation-filters="sRGB"><feFlood
         flood-opacity="0"
         result="BackgroundImageFix"
         id="feFlood28-8" /><feGaussianBlur
         in="BackgroundImageFix"
         stdDeviation="15.9435"
         id="feGaussianBlur28-4" /><feComposite
         in2="SourceAlpha"
         operator="in"
         result="effect1_backgroundBlur_415_11747"
         id="feComposite28-0" /><feBlend
         mode="normal"
         in="SourceGraphic"
         in2="effect1_backgroundBlur_415_11747"
         result="shape"
         id="feBlend28-4" /></filter><filter
       id="filter1_b_415_11747-6"
       x="262.58701"
       y="33.418201"
       width="143.491"
       height="143.492"
       filterUnits="userSpaceOnUse"
       color-interpolation-filters="sRGB"><feFlood
         flood-opacity="0"
         result="BackgroundImageFix"
         id="feFlood29-4" /><feGaussianBlur
         in="BackgroundImageFix"
         stdDeviation="15.9435"
         id="feGaussianBlur29-6" /><feComposite
         in2="SourceAlpha"
         operator="in"
         result="effect1_backgroundBlur_415_11747"
         id="feComposite29-4" /><feBlend
         mode="normal"
         in="SourceGraphic"
         in2="effect1_backgroundBlur_415_11747"
         result="shape"
         id="feBlend29-3" /></filter><filter
       id="filter2_b_415_11747-8"
       x="98.2136"
       y="-7.1584902"
       width="144.429"
       height="144.429"
       filterUnits="userSpaceOnUse"
       color-interpolation-filters="sRGB"><feFlood
         flood-opacity="0"
         result="BackgroundImageFix"
         id="feFlood30-4" /><feGaussianBlur
         in="BackgroundImageFix"
         stdDeviation="15.9435"
         id="feGaussianBlur30-0" /><feComposite
         in2="SourceAlpha"
         operator="in"
         result="effect1_backgroundBlur_415_11747"
         id="feComposite30-0" /><feBlend
         mode="normal"
         in="SourceGraphic"
         in2="effect1_backgroundBlur_415_11747"
         result="shape"
         id="feBlend30-9" /></filter><filter
       id="filter3_b_415_11747-3"
       x="155.81599"
       y="52.440899"
       width="29.0839"
       height="25.3818"
       filterUnits="userSpaceOnUse"
       color-interpolation-filters="sRGB"><feFlood
         flood-opacity="0"
         result="BackgroundImageFix"
         id="feFlood31-7" /><feGaussianBlur
         in="BackgroundImageFix"
         stdDeviation="1.56517"
         id="feGaussianBlur31-5" /><feComposite
         in2="SourceAlpha"
         operator="in"
         result="effect1_backgroundBlur_415_11747"
         id="feComposite31-7" /><feBlend
         mode="normal"
         in="SourceGraphic"
         in2="effect1_backgroundBlur_415_11747"
         result="shape"
         id="feBlend31-2" /></filter><filter
       id="filter4_b_415_11747-9"
       x="382.20001"
       y="300.27301"
       width="145.005"
       height="145.006"
       filterUnits="userSpaceOnUse"
       color-interpolation-filters="sRGB"><feFlood
         flood-opacity="0"
         result="BackgroundImageFix"
         id="feFlood32-7" /><feGaussianBlur
         in="BackgroundImageFix"
         stdDeviation="15.9435"
         id="feGaussianBlur32-5" /><feComposite
         in2="SourceAlpha"
         operator="in"
         result="effect1_backgroundBlur_415_11747"
         id="feComposite32-6" /><feBlend
         mode="normal"
         in="SourceGraphic"
         in2="effect1_backgroundBlur_415_11747"
         result="shape"
         id="feBlend32-5" /></filter><filter
       id="filter5_b_415_11747-3"
       x="177.588"
       y="133.175"
       width="144.429"
       height="144.429"
       filterUnits="userSpaceOnUse"
       color-interpolation-filters="sRGB"><feFlood
         flood-opacity="0"
         result="BackgroundImageFix"
         id="feFlood33-0" /><feGaussianBlur
         in="BackgroundImageFix"
         stdDeviation="15.9435"
         id="feGaussianBlur33-4" /><feComposite
         in2="SourceAlpha"
         operator="in"
         result="effect1_backgroundBlur_415_11747"
         id="feComposite33-85" /><feBlend
         mode="normal"
         in="SourceGraphic"
         in2="effect1_backgroundBlur_415_11747"
         result="shape"
         id="feBlend33-5" /></filter><filter
       id="filter6_b_415_11747-5"
       x="327.79599"
       y="183.97"
       width="144.429"
       height="144.429"
       filterUnits="userSpaceOnUse"
       color-interpolation-filters="sRGB"><feFlood
         flood-opacity="0"
         result="BackgroundImageFix"
         id="feFlood34-4" /><feGaussianBlur
         in="BackgroundImageFix"
         stdDeviation="15.9435"
         id="feGaussianBlur34-21" /><feComposite
         in2="SourceAlpha"
         operator="in"
         result="effect1_backgroundBlur_415_11747"
         id="feComposite34-9" /><feBlend
         mode="normal"
         in="SourceGraphic"
         in2="effect1_backgroundBlur_415_11747"
         result="shape"
         id="feBlend34-2" /></filter><filter
       id="filter7_b_415_11747-45"
       x="219.791"
       y="271.039"
       width="143.491"
       height="143.492"
       filterUnits="userSpaceOnUse"
       color-interpolation-filters="sRGB"><feFlood
         flood-opacity="0"
         result="BackgroundImageFix"
         id="feFlood35-86" /><feGaussianBlur
         in="BackgroundImageFix"
         stdDeviation="15.9435"
         id="feGaussianBlur35-2" /><feComposite
         in2="SourceAlpha"
         operator="in"
         result="effect1_backgroundBlur_415_11747"
         id="feComposite35-5" /><feBlend
         mode="normal"
         in="SourceGraphic"
         in2="effect1_backgroundBlur_415_11747"
         result="shape"
         id="feBlend35-1" /></filter><filter
       id="filter8_b_415_11747-3"
       x="249.802"
       y="407.966"
       width="144.429"
       height="144.429"
       filterUnits="userSpaceOnUse"
       color-interpolation-filters="sRGB"><feFlood
         flood-opacity="0"
         result="BackgroundImageFix"
         id="feFlood36-9" /><feGaussianBlur
         in="BackgroundImageFix"
         stdDeviation="15.9435"
         id="feGaussianBlur36-7" /><feComposite
         in2="SourceAlpha"
         operator="in"
         result="effect1_backgroundBlur_415_11747"
         id="feComposite36-3" /><feBlend
         mode="normal"
         in="SourceGraphic"
         in2="effect1_backgroundBlur_415_11747"
         result="shape"
         id="feBlend36-7" /></filter><filter
       id="filter9_b_415_11747-5"
       x="96.931396"
       y="383.582"
       width="144.429"
       height="144.429"
       filterUnits="userSpaceOnUse"
       color-interpolation-filters="sRGB"><feFlood
         flood-opacity="0"
         result="BackgroundImageFix"
         id="feFlood37-0" /><feGaussianBlur
         in="BackgroundImageFix"
         stdDeviation="15.9435"
         id="feGaussianBlur37-2" /><feComposite
         in2="SourceAlpha"
         operator="in"
         result="effect1_backgroundBlur_415_11747"
         id="feComposite37-18" /><feBlend
         mode="normal"
         in="SourceGraphic"
         in2="effect1_backgroundBlur_415_11747"
         result="shape"
         id="feBlend37-7" /></filter><filter
       id="filter10_b_415_11747-1"
       x="71.6101"
       y="221.33299"
       width="144.429"
       height="144.429"
       filterUnits="userSpaceOnUse"
       color-interpolation-filters="sRGB"><feFlood
         flood-opacity="0"
         result="BackgroundImageFix"
         id="feFlood38-5" /><feGaussianBlur
         in="BackgroundImageFix"
         stdDeviation="15.9435"
         id="feGaussianBlur38-5" /><feComposite
         in2="SourceAlpha"
         operator="in"
         result="effect1_backgroundBlur_415_11747"
         id="feComposite38-8" /><feBlend
         mode="normal"
         in="SourceGraphic"
         in2="effect1_backgroundBlur_415_11747"
         result="shape"
         id="feBlend38-5" /></filter><filter
       id="filter11_b_415_11747-6"
       x="290.13101"
       y="527.073"
       width="144.429"
       height="144.429"
       filterUnits="userSpaceOnUse"
       color-interpolation-filters="sRGB"><feFlood
         flood-opacity="0"
         result="BackgroundImageFix"
         id="feFlood39-79" /><feGaussianBlur
         in="BackgroundImageFix"
         stdDeviation="15.9435"
         id="feGaussianBlur39-4" /><feComposite
         in2="SourceAlpha"
         operator="in"
         result="effect1_backgroundBlur_415_11747"
         id="feComposite39-1" /><feBlend
         mode="normal"
         in="SourceGraphic"
         in2="effect1_backgroundBlur_415_11747"
         result="shape"
         id="feBlend39-6" /></filter><clipPath
       id="clip0_415_11747-9"><rect
         width="54.3955"
         height="54.3955"
         fill="#ffffff"
         transform="translate(95.0557,582.407)"
         id="rect45-0"
         x="0"
         y="0" /></clipPath><clipPath
       id="clip2_415_11747-3"><rect
         width="54.549301"
         height="54.549301"
         fill="#ffffff"
         transform="translate(294.818,452.982)"
         id="rect47-2"
         x="0"
         y="0" /></clipPath><linearGradient
       xlink:href="#linearGradient28"
       id="linearGradient48"
       x1="0"
       y1="332.9375"
       x2="663.99902"
       y2="332.9375"
       gradientUnits="userSpaceOnUse"
       spreadMethod="pad"
       gradientTransform="translate(65.342357,216.77161)" /></defs><g
     style="fill:none"
     id="g1"
     transform="matrix(0.26458333,0,0,0.26458333,-3.2260066e-7,1.8940181)"><g
       style="fill:none;stroke-width:1.00157;stroke-dasharray:none"
       id="g7"><path
         opacity="0.2"
         d="M 663.459,504.085 V 333.877 h 0.54 v -1.879 h -0.54 V 161.791 C 663.449,120.049 647.205,79.9474 618.163,49.9658 v -3.0883 h 45.296 V 44.9858 H 619.475 L 661.709,2.52078 660.422,1.23396 618.201,43.699 V 2.1476 h -1.878 v 42.8382 h -3.192 C 583.581,16.7383 544.283,0.962883 503.404,0.937988 H 160.042 C 119.18,0.976116 79.9032,16.7505 50.3661,44.9858 H 47.162 V 2.1476 H 45.2961 V 43.6604 L 3.0755,1.19535 1.78868,2.48217 44.0092,44.9472 H 2.67659 V 46.826 H 45.2961 v 3.1398 C 16.25,79.9451 0.00579511,120.048 0,161.791 v 342.294 c 0.00579511,41.742 16.25,81.845 45.2961,111.824 v 3.14 H 2.67659 v 1.879 H 43.9706 L 1.75008,663.393 3.0369,664.68 45.2575,622.215 v 41.513 h 1.8659 v -42.839 h 3.2041 c 29.5467,28.245 68.8395,44.02 109.7145,44.048 h 343.362 c 40.866,-0.035 80.148,-15.809 109.689,-44.048 h 3.191 v 42.839 h 1.879 v -41.513 l 42.22,42.465 1.287,-1.287 -42.233,-42.465 h 44.562 v -1.879 h -45.836 v -3.14 c 29.035,-29.986 45.278,-70.084 45.296,-111.824 z m -1.879,0 c -0.003,40.577 -15.539,79.613 -43.417,109.096 V 451.904 h 42.748 v -1.866 H 618.163 V 333.877 h 43.417 z m -212.055,-54.047 -1.287,-1.287 c 2.136,-2.17 4.208,-4.401 6.215,-6.691 v 7.978 z m 4.928,1.879 v 3.076 l -3.062,-3.076 z m -244.38,-1.879 v -6.756 c 1.673,1.866 3.398,3.681 5.148,5.469 l -1.287,1.287 z m 1.995,1.879 -1.995,1.982 v -1.995 z m 1.866,-236.08 1.287,1.287 c -1.75,1.788 -3.475,3.616 -5.148,5.469 v -6.756 z m -3.861,-1.879 v -1.981 l 1.995,1.994 z m 244.38,1.879 v 7.978 c -2.007,-2.29 -4.079,-4.521 -6.215,-6.691 l 1.287,-1.287 z m -3.062,-1.879 3.062,-3.075 v 3.075 z m 3.062,118.027 h -4.401 c -0.195,-30.873 -12.386,-60.461 -33.997,-82.511 l 30.883,-31.012 c 2.574,2.634 5.088,5.366 7.541,8.197 z m 1.866,-103.1 c 24.002,29.009 37.192,65.449 37.318,103.1 h -37.318 z m -41.59,21.876 c 21.272,21.686 33.271,50.797 33.458,81.173 H 333.981 Z m -82.06,79.783 V 215.837 c 30.272,0.211 59.256,12.278 80.735,33.612 z m -1.879,0 -80.748,-81.185 c 21.503,-21.295 50.486,-33.327 80.748,-33.522 z m -1.287,1.287 H 215.272 c 0.194,-30.375 12.192,-59.483 33.457,-81.173 z m 0,1.879 -80.748,81.172 C 227.49,393.193 215.492,364.084 215.298,333.71 Z m 1.287,1.287 v 115.041 c -30.278,-0.212 -59.267,-12.284 -80.748,-33.624 z m 1.879,0 80.735,81.172 c -21.435,21.432 -50.425,33.594 -80.735,33.869 z m 1.287,-1.287 h 114.192 c -0.187,30.376 -12.186,59.487 -33.457,81.172 z M 445.587,217.124 414.704,248.149 C 397.752,231.332 376.09,220.063 352.589,215.837 h 91.686 z m -112.918,-3.166 v -43.842 c 40.782,0.2 79.967,15.874 109.637,43.855 z m -1.879,0 H 221.153 c 29.664,-27.989 68.853,-43.664 109.637,-43.855 z m -19.933,1.879 c -23.508,4.227 -45.179,15.495 -62.14,32.312 l -30.884,-31.025 1.287,-1.287 z m -94.311,2.574 30.884,31.012 c -21.621,22.043 -33.815,51.635 -33.998,82.511 h -3.333 V 225.437 c 2.072,-2.381 4.221,-4.71 6.447,-6.962 z m -8.338,113.523 H 169.77 c 0.144,-38.228 13.753,-75.183 38.438,-104.374 z m 0,1.879 V 438.187 C 183.523,408.996 169.914,372.041 169.77,333.813 Z m 1.865,0 h 3.333 c 0.181,30.872 12.375,60.461 33.998,82.498 l -30.884,31.025 c -2.226,-2.252 -4.375,-4.581 -6.434,-6.962 z m 7.799,114.938 30.883,-31.025 c 16.952,16.811 38.607,28.078 62.102,32.312 h -91.673 z m 112.918,3.166 v 43.855 c -40.784,-0.191 -79.973,-15.866 -109.637,-43.855 z m 1.879,0 h 109.637 c -29.67,27.981 -68.855,43.655 -109.637,43.855 z m 19.92,-1.879 c 23.51,-4.221 45.182,-15.49 62.14,-32.312 l 30.884,31.025 -1.287,1.287 z m 94.324,-2.573 -30.884,-31.026 c 21.614,-22.042 33.806,-51.627 33.998,-82.498 h 4.401 v 105.327 c -2.402,2.779 -4.907,5.511 -7.515,8.197 z m 9.406,-113.524 h 37.318 c -0.126,37.651 -13.316,74.091 -37.318,103.1 z m 39.235,-1.878 c -0.143,-38.862 -14.043,-76.418 -39.235,-106.009 v -10.217 h 98.957 c 18.627,35.888 28.392,75.714 28.477,116.148 z M 456.319,214.035 v -4.967 l 54.278,-54.548 c 17.383,17.606 32.101,37.656 43.688,59.515 z m 0,-7.618 V 112.66 c 19.358,11.092 37.163,24.695 52.953,40.457 z m -1.866,1.879 -5.7,5.739 h -3.719 C 414.881,184.857 374.627,168.446 332.669,168.225 V 79.5884 c 42.663,0.0937 84.591,11.1162 121.784,32.0166 z M 330.79,168.225 c -41.948,0.198 -82.201,16.581 -112.365,45.733 h -3.719 L 210.073,209.3 V 110.987 C 247.008,90.475 288.542,79.6676 330.79,79.5756 Z m -122.582,39.209 -54.047,-54.317 c 16.091,-16.05 34.27,-29.862 54.047,-41.062 z m 0,2.664 v 3.86 h -99.086 c 11.583,-21.862 26.302,-41.913 43.688,-59.515 z m 0,5.752 v 8.879 C 182.35,254.5 168.043,292.566 167.891,331.998 H 79.7056 C 79.789,291.56 89.5537,251.729 108.183,215.837 Z m -40.317,118.027 c 0.152,39.432 14.459,77.499 40.317,107.269 v 8.892 H 108.183 C 89.5557,414.15 79.7911,374.324 79.7056,333.89 Z m 40.317,118.027 v 3.861 l -55.334,55.629 C 135.488,493.791 120.77,473.741 109.187,451.878 Z m 0,6.537 v 95.379 c -19.777,-11.2 -37.956,-25.012 -54.047,-41.062 z m 1.865,-1.879 4.633,-4.658 h 3.719 c 30.162,29.157 70.415,45.545 112.365,45.747 v 88.662 C 288.542,586.21 247.009,575.398 210.073,554.888 Z m 122.596,41.089 c 41.948,-0.201 82.2,-16.584 112.365,-45.734 h 3.719 l 5.7,5.739 v 96.615 c -37.194,20.898 -79.121,31.924 -121.784,32.029 z m 123.65,-38.116 52.953,53.236 c -15.796,15.755 -33.6,29.358 -52.953,40.457 z m 0,-2.651 v -4.967 h 97.966 c -11.587,21.86 -26.305,41.91 -43.688,59.515 z m 0,-6.846 v -10.14 c 25.192,-29.591 39.092,-67.146 39.235,-106.008 h 88.199 c -0.085,40.434 -9.85,80.26 -28.477,116.148 z m 129.3,-116.148 h 30.665 v 116.148 h -58.898 c 18.476,-35.938 28.153,-75.751 28.233,-116.161 z m 0,-1.879 c -0.078,-40.414 -9.755,-80.231 -28.233,-116.174 h 58.898 V 331.985 Z M 556.395,213.984 C 544.651,191.619 529.664,171.113 511.923,153.13 L 615.1,49.4511 l 0.09,0.0772 c 0.386,0.3989 0.772,0.8236 1.158,1.2868 V 213.971 Z M 613.685,48.1514 510.597,151.792 C 494.435,135.66 476.179,121.771 456.319,110.498 V 46.8646 H 612.346 Z M 454.453,109.456 C 417.202,88.7297 375.298,77.8021 332.669,77.6968 V 46.8131 H 454.453 Z M 332.669,44.9858 V 2.81674 H 454.453 V 44.9858 Z m -1.879,0 H 210.073 V 2.81674 H 330.79 Z m 0,1.8788 v 30.8837 c -42.214,0.0988 -83.726,10.812 -120.717,31.1537 V 46.8646 Z M 208.208,109.919 c -20.27,11.371 -38.888,25.464 -55.334,41.886 L 49.7871,48.1643 51.0739,46.8775 H 208.208 Z M 48.333,49.5283 48.4102,49.4511 151.536,153.117 c -17.749,17.979 -32.74,38.486 -44.485,60.854 H 47.162 V 50.7637 c 0.4504,-0.4118 0.7721,-0.8365 1.171,-1.2354 z m 57.74,166.3087 C 87.5987,251.772 77.9223,291.58 77.8398,331.985 H 47.162 V 215.837 Z M 77.8398,333.864 c 0.0785,40.414 9.755,80.232 28.2332,116.174 H 47.162 V 333.877 Z m 29.2112,118.027 c 11.745,22.368 26.736,42.875 44.485,60.854 L 48.4102,616.424 48.333,616.347 c -0.3989,-0.399 -0.7721,-0.824 -1.171,-1.287 V 451.904 Z M 49.7742,617.724 152.861,514.083 c 16.45,16.423 35.066,30.519 55.334,41.899 v 63.054 H 51.1125 Z M 210.073,557.025 c 36.991,20.341 78.503,31.055 120.717,31.153 v 30.884 H 210.073 Z m 120.717,63.864 v 42.169 H 210.073 v -42.169 z m 1.879,0 h 121.784 v 42.169 H 332.669 Z m 0,-1.878 v -30.884 c 42.629,-0.105 84.533,-11.033 121.784,-31.759 v 62.591 z m 123.65,-63.634 c 19.86,-11.273 38.116,-25.161 54.278,-41.294 l 103.088,103.641 -1.287,1.287 H 456.319 Z m 158.781,60.97 -0.09,0.077 -103.113,-103.666 c 17.742,-17.983 32.728,-38.489 44.473,-60.854 h 59.888 V 615.112 Z M 661.58,161.791 V 331.998 H 618.163 V 215.837 h 42.748 v -1.879 H 618.163 V 52.7325 c 27.869,29.4736 43.404,68.4945 43.417,109.0585 z M 610.39,44.9472 H 456.319 V 2.81674 h 47.085 C 543.114,2.84607 581.34,17.9129 610.39,44.9858 Z M 160.003,2.77814 h 48.205 V 44.9472 H 53.0685 C 82.1211,17.8902 120.341,2.83755 160.042,2.81674 Z M 1.86589,504.085 V 161.791 C 1.87391,121.212 17.4138,82.1759 45.2961,52.6939 V 213.932 H 2.57364 v 1.905 H 45.2961 V 331.985 H 2.41922 v 1.879 H 45.2961 V 450.038 H 2.57364 v 1.879 H 45.2961 V 613.156 C 17.4199,583.68 1.88049,544.654 1.86589,504.085 Z M 53.0685,620.928 H 208.208 v 42.169 H 160.042 C 120.331,663.055 82.1092,647.975 53.0685,620.889 Z M 503.456,663.097 H 456.319 V 620.889 H 610.39 c -29.052,27.071 -67.276,42.138 -106.986,42.169 z"
         fill="url(#paint0_radial_415_11747)"
         id="path1"
         style="fill:url(#linearGradient48);fill-opacity:1;fill-rule:nonzero;stroke-width:1.00157;stroke-dasharray:none" /><g
         mask="url(#mask0_415_11747)"
         id="g28"
         style="stroke-width:1.00157;stroke-dasharray:none"><g
           filter="url(#filter0_b_415_11747)"
           id="g3"
           style="stroke-width:1.00157;stroke-dasharray:none;filter:url(#filter0_b_415_11747-0)"><path
             d="m 82.8643,584.71 c 0,-5.128 0,-7.691 1.0136,-9.643 0.8542,-1.644 2.195,-2.985 3.8394,-3.839 1.9514,-1.014 4.5151,-1.014 9.6424,-1.014 h 49.7883 c 5.128,0 7.691,0 9.643,1.014 1.644,0.854 2.985,2.195 3.839,3.839 1.014,1.952 1.014,4.515 1.014,9.643 v 49.789 c 0,5.127 0,7.691 -1.014,9.642 -0.854,1.644 -2.195,2.985 -3.839,3.839 -1.952,1.014 -4.515,1.014 -9.643,1.014 H 97.3597 c -5.1273,0 -7.691,0 -9.6424,-1.014 -1.6444,-0.854 -2.9852,-2.195 -3.8394,-3.839 -1.0136,-1.951 -1.0136,-4.515 -1.0136,-9.642 z"
             fill="#ffffff"
             fill-opacity="0.1"
             id="path2"
             style="stroke-width:1.00157;stroke-dasharray:none" /><path
             d="M 147.148,569.745 H 97.3597 97.3374 c -2.5448,0 -4.4835,0 -6.0287,0.129 -1.5553,0.129 -2.7538,0.39 -3.8075,0.938 -1.7301,0.899 -3.1407,2.309 -4.0394,4.039 -0.5474,1.054 -0.809,2.253 -0.9382,3.808 -0.1283,1.545 -0.1283,3.484 -0.1283,6.028 v 0.023 49.789 0.022 c 0,2.545 0,4.483 0.1283,6.029 0.1292,1.555 0.3908,2.753 0.9382,3.807 0.8987,1.73 2.3093,3.141 4.0394,4.039 1.0537,0.548 2.2522,0.809 3.8075,0.939 1.5451,0.128 3.4837,0.128 6.0284,0.128 h 0.0226 49.7883 0.023 c 2.545,0 4.483,0 6.028,-0.128 1.556,-0.13 2.754,-0.391 3.808,-0.939 1.73,-0.898 3.141,-2.309 4.039,-4.039 0.548,-1.054 0.809,-2.252 0.939,-3.807 0.128,-1.546 0.128,-3.484 0.128,-6.029 v -0.022 -49.789 -0.023 c 0,-2.544 0,-4.483 -0.128,-6.028 -0.13,-1.555 -0.391,-2.754 -0.939,-3.808 -0.898,-1.73 -2.309,-3.14 -4.039,-4.039 -1.054,-0.548 -2.252,-0.809 -3.808,-0.938 -1.545,-0.129 -3.483,-0.129 -6.028,-0.129 z"
             stroke="#ffffff"
             stroke-opacity="0.2"
             stroke-width="0.937853"
             id="path3"
             style="stroke-width:1.00157;stroke-dasharray:none" /></g><g
           clip-path="url(#clip0_415_11747-9)"
           id="g4"
           style="stroke-width:1.00157;stroke-dasharray:none"><path
             d="m 98.4551,582.407 h 47.5959 l -4.329,48.872 -19.521,5.523 -19.412,-5.525 z m 38.7339,10.002 -29.872,-0.007 0.483,5.943 22.948,0.004 -0.578,6.156 h -15.05 l 0.544,5.832 h 14.012 l -0.83,7.984 -6.595,1.823 -6.7,-1.836 -0.426,-4.783 h -5.915 l 0.657,8.738 12.386,3.86 12.178,-3.468 2.758,-30.244 z"
             fill="#ffffff"
             id="path4"
             style="stroke-width:1.00157;stroke-dasharray:none" /></g><g
           filter="url(#filter1_b_415_11747)"
           id="g6"
           style="stroke-width:1.00157;stroke-dasharray:none;filter:url(#filter1_b_415_11747-6)"><path
             d="m 359.185,66.2432 h -49.706 c -7.77,0 -14.068,6.2983 -14.068,14.0678 v 49.706 c 0,7.77 6.298,14.068 14.068,14.068 h 49.706 c 7.77,0 14.068,-6.298 14.068,-14.068 V 80.311 c 0,-7.7695 -6.298,-14.0678 -14.068,-14.0678 z"
             fill="#ffffff"
             fill-opacity="0.1"
             id="path5"
             style="stroke-width:1.00157;stroke-dasharray:none" /><path
             d="m 359.185,65.7742 h -49.706 c -8.028,0 -14.537,6.5083 -14.537,14.5368 v 49.706 c 0,8.029 6.509,14.537 14.537,14.537 h 49.706 c 8.029,0 14.537,-6.508 14.537,-14.537 V 80.311 c 0,-8.0284 -6.508,-14.5368 -14.537,-14.5368 z"
             stroke="#ffffff"
             stroke-opacity="0.2"
             stroke-width="0.937853"
             id="path6"
             style="stroke-width:1.00157;stroke-dasharray:none" /></g><path
           d="m 347.7,127.057 c 1.568,2.56 3.608,4.442 7.216,4.442 3.031,0 4.967,-1.515 4.967,-3.608 0,-2.508 -1.989,-3.397 -5.325,-4.856 l -1.829,-0.784 c -5.278,-2.249 -8.785,-5.066 -8.785,-11.022 0,-5.486 4.18,-9.662 10.713,-9.662 4.65,0 7.994,1.619 10.403,5.857 l -5.696,3.657 c -1.254,-2.249 -2.607,-3.135 -4.707,-3.135 -2.143,0 -3.501,1.359 -3.501,3.135 0,2.194 1.359,3.083 4.498,4.442 l 1.828,0.783 c 6.215,2.665 9.724,5.382 9.724,11.491 0,6.586 -5.173,10.194 -12.121,10.194 -6.793,0 -11.182,-3.238 -13.329,-7.481 z m -25.839,0.634 c 1.149,2.039 2.194,3.762 4.707,3.762 2.403,0 3.919,-0.94 3.919,-4.596 v -24.872 h 7.315 v 24.971 c 0,7.574 -4.441,11.021 -10.923,11.021 -5.856,0 -9.248,-3.031 -10.973,-6.681 z"
           fill="#ffffff"
           id="path7"
           style="stroke-width:1.00157;stroke-dasharray:none" /><g
           filter="url(#filter2_b_415_11747)"
           id="g8"
           style="stroke-width:1.00157;stroke-dasharray:none;filter:url(#filter2_b_415_11747-8)"><rect
             x="131.03799"
             y="25.6665"
             width="78.779602"
             height="78.779602"
             rx="15.0056"
             fill="#ffffff"
             fill-opacity="0.1"
             id="rect7"
             ry="15.0056"
             style="stroke-width:1.00157;stroke-dasharray:none" /><rect
             x="130.569"
             y="25.197599"
             width="79.717499"
             height="79.717499"
             rx="15.4746"
             stroke="#ffffff"
             stroke-opacity="0.2"
             stroke-width="0.937853"
             id="rect8"
             ry="15.4746"
             style="stroke-width:1.00157;stroke-dasharray:none" /></g><path
           d="m 170.251,75.8998 c 16.572,0.2699 30.086,-4.3646 30.183,-10.3514 0.098,-5.9868 -13.258,-11.0589 -29.83,-11.3288 -16.573,-0.2699 -30.086,4.3646 -30.184,10.3514 -0.097,5.9869 13.258,11.0589 29.831,11.3288 z"
           stroke="#ffffff"
           stroke-width="2.73905"
           id="path8"
           style="stroke-width:1.00157;stroke-dasharray:none" /><path
           d="m 160.416,70.3146 c 8.065,13.7141 19.085,22.4772 24.614,19.573 5.528,-2.9042 3.472,-16.3759 -4.593,-30.0899 -8.065,-13.714 -19.085,-22.4771 -24.614,-19.5729 -5.528,2.9041 -3.472,16.3758 4.593,30.0898 z"
           stroke="#ffffff"
           stroke-width="2.73905"
           id="path9"
           style="stroke-width:1.00157;stroke-dasharray:none" /><path
           d="m 160.594,59.4744 c -8.507,13.4441 -11.001,26.8417 -5.57,29.9244 5.431,3.0826 16.731,-5.317 25.238,-18.7611 8.507,-13.4442 11.001,-26.8418 5.57,-29.9244 -5.431,-3.0827 -16.731,5.317 -25.238,18.7611 z"
           stroke="#ffffff"
           stroke-width="2.73905"
           id="path10"
           style="stroke-width:1.00157;stroke-dasharray:none" /><g
           filter="url(#filter3_b_415_11747)"
           id="g11"
           style="stroke-width:1.00157;stroke-dasharray:none;filter:url(#filter3_b_415_11747-3)"><path
             fill-rule="evenodd"
             clip-rule="evenodd"
             d="m 181.769,65.3149 c -0.776,-1.5882 -1.641,-3.2003 -2.593,-4.8187 -0.951,-1.617 -1.942,-3.1611 -2.958,-4.6215 -1.841,-0.1607 -3.748,-0.2605 -5.705,-0.2924 -1.956,-0.0318 -3.866,0.0059 -5.711,0.1065 -1.064,1.4265 -2.104,2.9375 -3.107,4.5227 -1.004,1.5865 -1.921,3.1696 -2.749,4.7317 0.776,1.5879 1.641,3.1998 2.593,4.8179 0.952,1.6195 1.945,3.166 2.963,4.6284 1.84,0.1605 3.746,0.2602 5.7,0.292 1.955,0.0319 3.863,-0.0057 5.707,-0.1062 1.065,-1.4285 2.108,-2.9418 3.112,-4.5295 1.004,-1.5863 1.921,-3.1691 2.748,-4.7309 z"
             fill="#ffffff"
             fill-opacity="0.2"
             id="path11"
             style="stroke-width:1.00157;stroke-dasharray:none" /></g><path
           d="m 170.365,70.3479 c 3.089,0.0503 5.631,-2.2778 5.679,-5.2 0.047,-2.9221 -2.418,-5.3317 -5.506,-5.382 -3.089,-0.0503 -5.631,2.2778 -5.679,5.1999 -0.047,2.9221 2.418,5.3318 5.506,5.3821 z"
           fill="#ffffff"
           id="path12"
           style="stroke-width:1.00157;stroke-dasharray:none" /><g
           filter="url(#filter4_b_415_11747)"
           id="g13"
           style="stroke-width:1.00157;stroke-dasharray:none;filter:url(#filter4_b_415_11747-9)"><rect
             x="415.767"
             y="332.93799"
             width="78.779701"
             height="78.779701"
             rx="14.0678"
             transform="rotate(0.656233,415.767,332.938)"
             fill="#ffffff"
             fill-opacity="0.1"
             id="rect12"
             ry="14.0678"
             style="stroke-width:1.00157;stroke-dasharray:none" /><rect
             x="415.30301"
             y="332.46399"
             width="79.717499"
             height="79.717499"
             rx="14.5367"
             transform="rotate(0.656233,415.303,332.464)"
             stroke="#ffffff"
             stroke-opacity="0.2"
             stroke-width="0.937853"
             id="rect13"
             ry="14.5367"
             style="stroke-width:1.00157;stroke-dasharray:none" /></g><g
           filter="url(#filter5_b_415_11747)"
           id="g15"
           style="stroke-width:1.00157;stroke-dasharray:none;filter:url(#filter5_b_415_11747-3)"><rect
             x="210.412"
             y="166"
             width="78.779701"
             height="78.779701"
             rx="14.0678"
             fill="#ffffff"
             fill-opacity="0.1"
             id="rect14"
             ry="14.0678"
             style="stroke-width:1.00157;stroke-dasharray:none" /><rect
             x="209.94299"
             y="165.53101"
             width="79.717499"
             height="79.717499"
             rx="14.5367"
             stroke="#ffffff"
             stroke-opacity="0.2"
             stroke-width="0.937853"
             id="rect15"
             ry="14.5367"
             style="stroke-width:1.00157;stroke-dasharray:none" /></g><path
           fill-rule="evenodd"
           clip-rule="evenodd"
           fill="#cb6699"
           d="m 417.50168,369.87412 c 0,0.40814 0.12678,0.67752 0.19783,0.93935 0.46304,1.70276 1.45832,3.16402 2.6392,4.49698 1.68188,1.89957 3.74167,3.42876 5.85168,4.8668 1.8301,1.24702 3.69756,2.4662 5.53502,3.70394 0.31543,0.21248 0.6137,0.4569 0.95609,0.71757 -0.2946,0.15094 -0.5396,0.28389 -0.7944,0.40638 -2.42482,1.16576 -4.75777,2.47259 -6.9082,4.05576 -1.29603,0.95443 -2.54917,1.96866 -3.43421,3.29408 -1.42402,2.1318 -1.9281,4.40292 -0.86667,6.82791 0.30993,0.70828 0.78276,1.32019 1.44975,1.77243 0.21621,0.1463 0.45875,0.29144 0.71171,0.34833 0.64801,0.14457 1.30827,0.2392 1.96424,0.35357 l 1.85767,-9.1e-4 c 2.05427,-0.17358 3.92419,-0.84064 5.61403,-1.94601 2.64103,-1.72773 4.4203,-4.04416 5.1853,-7.01718 0.55613,-2.16082 0.57879,-4.32398 -0.0766,-6.47493 a 7.1636203,6.7901766 0 0 0 -0.21682,-0.58869 c -0.0796,-0.19333 -0.17334,-0.38142 -0.28359,-0.62235 l 4.21145,-2.29552 0.0631,0.0511 c -0.0766,0.23745 -0.15802,0.47431 -0.22723,0.71409 -0.50041,1.73237 -0.83299,3.49494 -0.71355,5.29292 0.12739,1.91583 0.6915,3.70917 1.87482,5.30975 0.95669,1.29465 3.23636,1.34283 4.25309,0.0436 0.36075,-0.46155 0.71048,-0.94399 0.97324,-1.45894 0.68659,-1.34399 1.32235,-2.71177 1.97832,-4.07027 l 0.11453,-0.24848 c -0.0472,0.64325 -0.10227,1.20813 -0.12739,1.77359 -0.0392,0.88303 0.0153,1.76083 0.3338,2.60089 0.27256,0.71873 0.73621,1.25574 1.60472,1.35038 0.59411,0.0644 1.06755,-0.19333 1.50426,-0.52018 a 6.3600405,6.0284879 0 0 0 1.64819,-1.8572 c 1.16434,-2.02671 2.35991,-4.04124 3.41522,-6.11906 1.14167,-2.24732 2.14002,-4.56025 3.20023,-6.8459 l 0.17517,-0.40523 c 0.2505,0.93295 0.42506,1.84674 0.74662,2.71177 0.37361,1.00378 0.83604,1.98376 1.3395,2.93645 0.23826,0.44994 0.2107,0.74195 -0.11943,1.11932 -1.38176,1.57911 -2.73964,3.17737 -4.09874,4.7739 -0.30074,0.3524 -0.60024,0.71118 -0.85075,1.0961 a 2.2668057,2.1486357 0 0 0 -0.294,0.79187 1.0638859,1.0084248 0 0 0 0.84707,1.14427 5.9172141,5.6087463 0 0 0 1.65861,0.11205 c 1.89686,-0.13237 3.61917,-0.76343 5.14181,-1.83281 1.97281,-1.38521 2.60612,-3.27549 2.12838,-5.51586 -0.12923,-0.60784 -0.35769,-1.19885 -0.58002,-1.78463 -0.0998,-0.26415 -0.10657,-0.44935 0.0753,-0.6955 1.57714,-2.13471 2.92461,-4.39945 4.17775,-6.71645 0.0496,-0.0911 0.10045,-0.18229 0.18742,-0.27983 0.40608,2.00292 1.01734,3.93327 2.11246,5.6848 -0.55858,0.51031 -1.11166,0.97302 -1.61205,1.48274 -1.10186,1.12279 -2.05734,2.34196 -2.55591,3.82877 -0.21436,0.64093 -0.37912,1.29231 -0.28357,1.97679 0.14822,1.06299 1.06694,1.75385 2.17003,1.51176 2.36052,-0.51786 4.39826,-1.57214 5.88721,-3.43979 1.00202,-1.25748 1.09328,-2.6601 0.67373,-4.12949 -0.11515,-0.39942 -0.25174,-0.79246 -0.39873,-1.25052 0.58247,-0.17126 1.15025,-0.37677 1.73762,-0.50391 3.04956,-0.65952 6.06604,-0.54457 9.00474,0.49927 1.71557,0.60958 3.10163,1.62961 3.92358,3.23427 1.00387,1.9617 0.44895,3.82296 -1.50181,5.06303 -0.18191,0.11553 -0.39016,0.20667 -0.54083,0.35123 a 0.53224915,0.5045027 0 0 0 -0.12555,0.38897 c 0.0128,0.0714 0.21192,0.16082 0.32645,0.15966 0.64127,-0.005 1.16127,-0.32337 1.66044,-0.6508 1.2507,-0.82033 2.1633,-1.92396 2.35991,-3.3771 l 0.0386,-0.10914 -0.0472,-0.94631 c -0.019,-0.0546 0.0141,-0.10856 0.01,-0.14978 -0.26583,-2.11612 -1.45833,-3.75735 -3.19289,-5.04386 -2.00895,-1.48913 -4.3811,-2.1022 -6.88984,-2.19914 a 15.557723,14.746689 0 0 0 -5.98091,0.87257 c -0.5494,0.18868 -1.0939,0.41219 -1.64636,0.62293 -0.0741,-0.12714 -0.15373,-0.24906 -0.21927,-0.37503 -0.56716,-1.10074 -1.25437,-2.1527 -1.40627,-3.41483 -0.10779,-0.89638 -0.24009,-1.7916 -0.0153,-2.67811 0.21621,-0.85283 0.49795,-1.69115 0.76316,-2.53237 0.13659,-0.4331 0.0404,-0.67578 -0.39567,-0.87084 a 1.7480311,1.6569053 0 0 0 -0.4814,-0.14979 c -1.07185,-0.14746 -2.129,-0.0633 -3.16716,0.22294 -0.3675,0.10159 -0.63454,0.29666 -0.716,0.68215 -0.0465,0.22119 -0.14149,0.43309 -0.20764,0.65138 -0.27132,0.90741 -0.46365,1.83224 -0.90218,2.69668 -1.0988,2.16838 -2.35317,4.2549 -3.63694,6.32632 -0.13903,0.22351 -0.28541,0.44296 -0.46058,0.71408 -0.45079,-0.89406 -0.9316,-1.69638 -1.07736,-2.63688 -0.16476,-1.06358 -0.29461,-2.12541 -0.0153,-3.18086 0.20762,-0.78724 0.47896,-1.55996 0.72885,-2.33675 0.11821,-0.36923 0.0637,-0.56313 -0.28909,-0.75762 -0.17823,-0.0981 -0.37974,-0.18519 -0.58064,-0.21364 a 7.1311586,6.7594072 0 0 0 -3.27924,0.25428 c -0.33258,0.10218 -0.50714,0.30596 -0.60881,0.63106 -0.29889,0.95908 -0.55369,1.94138 -0.97324,2.85344 -1.69903,3.69233 -3.44706,7.3655 -5.19325,11.03809 -0.36443,0.76692 -0.79134,1.50713 -1.20231,2.25372 -0.10412,0.18926 -0.25602,0.35589 -0.38587,0.53353 -0.10412,-0.11669 -0.14455,-0.19681 -0.14394,-0.27692 0.003,-0.472 -0.0563,-0.95792 0.0386,-1.41423 a 105.46312,99.965265 0 0 1 0.9665,-4.12136 c 0.28787,-1.12977 0.6229,-2.24908 0.94201,-3.37129 0.10718,-0.37562 0.10902,-0.72686 -0.17578,-1.04268 -0.47836,-0.52888 -1.47794,-0.645 -2.07081,-0.23745 l -0.26216,0.1405 0.0509,-0.40058 c 0.12495,-0.85864 0.15006,-1.71438 -0.0986,-2.56026 -0.30991,-1.05428 -1.1037,-1.66096 -2.25762,-1.62729 -0.53776,0.0156 -1.10246,0.10275 -1.60042,0.28853 -2.09408,0.77795 -3.70431,2.1556 -5.07505,3.8131 a 1.5875602,1.5047997 0 0 1 -0.46365,0.37968 c -1.77192,0.93121 -3.54934,1.85081 -5.32616,2.77389 l -1.97772,1.027 c -0.53041,-0.47954 -1.01243,-0.97707 -1.55939,-1.39914 -1.67023,-1.29115 -3.36743,-2.55037 -5.04932,-3.82702 -1.49078,-1.1315 -2.93502,-2.31003 -4.03994,-3.80844 -0.82196,-1.11467 -1.35176,-2.33442 -1.40259,-3.71266 -0.0644,-1.75617 0.4612,-3.36083 1.40442,-4.8546 1.2066,-1.91119 2.85235,-3.44502 4.66163,-4.83428 1.91401,-1.46881 3.98421,-2.71585 6.12974,-3.85432 3.00179,-1.59246 6.08933,-3.00205 9.3998,-3.93268 3.39439,-0.95444 6.83839,-1.50073 10.3908,-1.1199 1.39647,0.14979 2.75251,0.45284 3.99769,1.10016 0.95364,0.49522 1.73578,1.1437 2.0996,2.15735 0.35892,0.99739 0.34789,2.00814 0.0992,3.02121 -0.50529,2.05168 -1.69046,3.74284 -3.18185,5.25402 -2.44627,2.47724 -5.4303,4.16375 -8.78977,5.27784 a 24.179668,22.919168 0 0 1 -5.98092,1.20929 c -1.67146,0.13295 -3.30802,-0.007 -4.89068,-0.55849 -1.04797,-0.36517 -1.96057,-0.92367 -2.69433,-1.73412 -0.13107,-0.14514 -0.29889,-0.30247 -0.54327,-0.16662 -0.23948,0.13353 -0.28174,0.34949 -0.20151,0.56837 0.13414,0.36342 0.25786,0.74195 0.46672,1.06705 0.5249,0.81569 1.2905,1.40727 2.13328,1.91468 1.6188,0.97591 3.42808,1.30392 5.30412,1.37998 2.84683,0.11669 5.62444,-0.28622 8.36287,-1.01017 3.90948,-1.03338 7.30878,-2.85865 10.03494,-5.73821 2.26987,-2.39769 3.89112,-5.10366 4.2384,-8.37103 0.16965,-1.59479 -0.0111,-3.15707 -0.79868,-4.61194 -0.85442,-1.57621 -2.21291,-2.74835 -3.83722,-3.5559 -2.36542,-1.17562 -4.91825,-1.8601 -7.55316,-1.8601 h -2.63981 c -3.19105,0 -6.27613,0.86677 -9.27485,1.90074 -2.26987,0.78317 -4.49565,1.70741 -6.65649,2.73036 -4.70572,2.22874 -9.08805,4.91613 -12.68762,8.61138 -1.79336,1.84094 -3.3117,3.8723 -4.18511,6.26419 a 24.801953,23.509014 0 0 0 -0.68047,2.17476 m 17.05097,20.90755 c -0.20397,2.58869 -1.44179,4.6874 -3.46483,6.38727 -1.138,0.95559 -2.4432,1.63601 -3.96339,1.87519 -0.55123,0.0865 -1.11534,0.1074 -1.65003,-0.10914 -0.76255,-0.30886 -0.93343,-0.95038 -0.94813,-1.63368 -0.0226,-1.08913 0.37975,-2.07375 0.93159,-3.01076 0.72028,-1.22149 1.77621,-2.1527 2.90379,-3.02238 1.77621,-1.37069 3.70309,-2.53064 5.67651,-3.62557 l 0.14884,-0.058 c 0.30501,1.06822 0.45016,2.12308 0.36565,3.19712 z M 450.015,378.4806 c -0.14394,0.82671 -0.32401,1.654 -0.57881,2.45517 -0.88075,2.77331 -2.01201,5.46071 -3.23514,8.1121 -0.22601,0.49057 -0.55491,0.93818 -0.84094,1.4032 a 1.0344865,0.98055812 0 0 1 -0.17334,0.19391 c -0.35401,0.3315 -0.68965,0.31408 -0.86849,-0.11959 -0.20825,-0.50392 -0.33626,-1.04326 -0.44651,-1.57679 -0.0741,-0.3582 -0.0563,-0.7344 -0.0796,-1.10132 0.0239,-2.60901 0.8636,-4.98 2.28824,-7.18727 0.58737,-0.91031 1.22681,-1.77767 2.20372,-2.35358 a 3.8402787,3.6400827 0 0 1 0.97691,-0.40987 c 0.52062,-0.13875 0.84033,0.0894 0.75398,0.58404 z m 10.51268,12.69559 3.77842,-4.18175 c 0.15741,1.55299 -2.62757,4.65316 -3.77842,4.18175 z m 12.06779,-2.81395 c -0.26705,0.14514 -0.55798,0.24963 -0.83176,0.38375 -0.25051,0.12307 -0.33319,-9.1e-4 -0.34055,-0.20553 a 1.4607758,1.3846247 0 0 1 0.057,-0.41857 c 0.5102,-1.70568 1.44914,-3.16171 2.84622,-4.34604 l 0.098,-0.0476 c 0.66455,1.76198 -0.10351,3.69697 -1.82888,4.63399 z"
           id="path1-8"
           style="fill:#ffffff;fill-opacity:1;stroke-width:1.00157;stroke-dasharray:none" /><path
           d="m 229.67,214.575 5.914,-38.045 c 0.043,-0.282 0.174,-0.543 0.374,-0.747 0.2,-0.203 0.459,-0.338 0.74,-0.386 0.281,-0.048 0.57,-0.005 0.826,0.121 0.256,0.126 0.466,0.33 0.599,0.582 l 6.36,11.932 z m 42.004,9.232 -5.632,-35.012 c -0.042,-0.245 -0.15,-0.475 -0.313,-0.663 -0.162,-0.188 -0.374,-0.328 -0.611,-0.404 -0.237,-0.076 -0.49,-0.086 -0.732,-0.028 -0.242,0.058 -0.464,0.182 -0.64,0.357 l -35.515,35.75 19.651,11.074 c 0.606,0.341 1.289,0.52 1.984,0.52 0.696,0 1.379,-0.179 1.985,-0.52 z m -15.969,-30.553 -4.552,-8.708 c -0.115,-0.219 -0.287,-0.403 -0.499,-0.531 -0.211,-0.128 -0.454,-0.195 -0.701,-0.195 -0.248,0 -0.49,0.067 -0.702,0.195 -0.211,0.128 -0.384,0.312 -0.499,0.531 l -19.983,35.809 z"
           fill="#ffffff"
           id="path15"
           style="stroke-width:1.00157;stroke-dasharray:none" /><g
           filter="url(#filter6_b_415_11747)"
           id="g17"
           style="stroke-width:1.00157;stroke-dasharray:none;filter:url(#filter6_b_415_11747-5)"><rect
             x="360.62"
             y="216.795"
             width="78.779701"
             height="78.779701"
             rx="14.0678"
             fill="#ffffff"
             fill-opacity="0.1"
             id="rect16"
             ry="14.0678"
             style="stroke-width:1.00157;stroke-dasharray:none" /><rect
             x="360.151"
             y="216.326"
             width="79.717499"
             height="79.717499"
             rx="14.5367"
             stroke="#ffffff"
             stroke-opacity="0.2"
             stroke-width="0.937853"
             id="rect17"
             ry="14.5367"
             style="stroke-width:1.00157;stroke-dasharray:none" /></g><path
           fill="#83cd29"
           d="m 428.18111,237.27787 -25.50459,-15.30233 c -1.60678,-0.94665 -3.71161,-0.94665 -5.3311,0 l -25.70393,15.30233 c -1.65762,0.9867 -2.78486,2.84114 -2.78486,4.82468 v 30.56403 c 0,1.98353 1.15092,3.83858 2.80913,4.83065 l 6.77669,3.99695 c 3.25112,1.65664 4.15187,1.65664 5.63096,1.65664 4.81516,0 7.31575,-3.01147 7.31575,-8.26405 V 244.7124 c 5.8e-4,-0.42611 0.25769,-1.06019 -0.14733,-1.06019 h -3.24823 c -0.41138,0 -1.22604,0.63408 -1.22604,1.0596 v 30.17437 c 0,2.32837 -2.08922,4.64539 -5.89442,2.67739 l -7.00376,-4.19119 c -0.24382,-0.13746 -0.39058,-0.41416 -0.39058,-0.7058 v -30.56403 c 0,-0.28807 0.26751,-0.57731 0.5148,-0.72493 l 25.64037,-15.27604 a 0.87128027,0.90122703 0 0 1 0.81755,0 l 25.40059,15.27246 c 0.24324,0.1512 0.20453,0.43148 0.20453,0.72851 v 30.56403 c 0,0.29164 0.0531,0.57552 -0.18662,0.71596 l -25.49881,15.285 c -0.2184,0.13567 -0.50266,0.13567 -0.74244,0 l -6.53865,-4.0334 c -0.19702,-0.11834 -0.43448,-0.16077 -0.62399,-0.0514 -1.81709,1.06557 -2.15451,1.20721 -3.85894,1.81858 -0.42004,0.1512 -1.03941,0.41357 0.23573,1.15283 l 8.54987,5.23166 a 5.3675025,5.5519888 0 0 0 2.68491,0.74464 5.3750135,5.559758 0 0 0 2.69588,-0.74464 l 25.40811,-15.2886 c 1.65878,-0.99924 2.49712,-2.84712 2.49712,-4.83065 v -30.56403 c -5.7e-4,-1.98354 -0.83892,-3.83321 -2.4977,-4.82468 z m -20.19371,30.54551 c -6.77553,0 -8.26734,-1.93333 -8.76481,-5.41812 -0.059,-0.37531 -0.36631,-0.82413 -0.73607,-0.82413 h -3.31064 c -0.40964,0 -0.73955,0.51396 -0.73955,0.93589 0,4.46191 2.34576,9.86808 13.55107,9.86808 8.11076,0 12.76183,-3.26008 12.76183,-9.0296 0,-5.72052 -3.73646,-7.22178 -11.60282,-8.29871 -7.9513,-1.08709 -8.75903,-1.63631 -8.75903,-3.56307 0,-1.5885 0.68408,-3.7071 6.57158,-3.7071 5.26004,0 7.19905,1.16777 7.99695,4.83543 0.0688,0.34483 0.37324,0.59225 0.71701,0.59225 h 3.3245 c 0.20454,0 0.39924,-0.0855 0.54253,-0.23666 0.13924,-0.16256 0.21204,-0.36635 0.19413,-0.58509 -0.51595,-6.31635 -4.57191,-9.25969 -12.7757,-9.25969 -7.29841,0 -11.65134,3.18777 -11.65134,8.53119 0,5.79582 4.33155,7.39747 11.33704,8.11402 8.38058,0.84984 9.03231,2.11682 9.03231,3.82185 0,2.96187 -2.29837,4.22346 -7.68899,4.22346 z"
           id="path1-4"
           style="fill:#ffffff;fill-opacity:1;stroke-width:1.00157;stroke-dasharray:none" /><g
           filter="url(#filter7_b_415_11747)"
           id="g19"
           style="stroke-width:1.00157;stroke-dasharray:none;filter:url(#filter7_b_415_11747-45)"><path
             d="m 322.855,303.864 h -62.638 c -4.198,0 -7.602,3.404 -7.602,7.602 v 62.638 c 0,4.199 3.404,7.602 7.602,7.602 h 62.638 c 4.199,0 7.602,-3.403 7.602,-7.602 v -62.638 c 0,-4.198 -3.403,-7.602 -7.602,-7.602 z"
             fill="#ffffff"
             fill-opacity="0.1"
             id="path18"
             style="stroke-width:1.00157;stroke-dasharray:none" /><path
             d="m 322.855,303.395 h -62.638 c -4.457,0 -8.071,3.614 -8.071,8.071 v 62.638 c 0,4.458 3.614,8.071 8.071,8.071 h 62.638 c 4.458,0 8.071,-3.613 8.071,-8.071 v -62.638 c 0,-4.457 -3.613,-8.071 -8.071,-8.071 z"
             stroke="#ffffff"
             stroke-opacity="0.2"
             stroke-width="0.937853"
             id="path19"
             style="stroke-width:1.00157;stroke-dasharray:none" /></g><path
           fill-rule="evenodd"
           clip-rule="evenodd"
           d="m 300.517,365.852 v 7.602 c 1.231,0.639 2.736,1.11 4.409,1.429 1.672,0.319 3.496,0.471 5.321,0.471 1.824,0 3.497,-0.167 5.169,-0.516 1.672,-0.35 3.041,-0.928 4.257,-1.673 1.231,-0.806 2.281,-1.824 2.889,-3.193 0.608,-1.368 1.079,-2.888 1.079,-4.865 0,-1.383 -0.213,-2.584 -0.623,-3.649 -0.411,-1.064 -1.004,-1.976 -1.825,-2.736 -0.775,-0.806 -1.672,-1.521 -2.736,-2.129 -1.065,-0.608 -2.281,-1.246 -3.649,-1.824 -1.004,-0.411 -1.825,-0.806 -2.737,-1.201 -0.79,-0.395 -1.474,-0.791 -1.976,-1.186 -0.563,-0.411 -0.988,-0.836 -1.292,-1.277 -0.305,-0.456 -0.457,-0.958 -0.457,-1.52 0,-0.517 0.136,-0.989 0.411,-1.414 0.275,-0.426 0.654,-0.776 1.14,-1.08 0.487,-0.304 1.095,-0.532 1.825,-0.699 0.714,-0.167 1.505,-0.243 2.432,-0.243 0.639,0 1.308,0.047 1.977,0.142 0.699,0.096 1.414,0.244 2.128,0.441 0.715,0.198 1.414,0.441 2.129,0.745 0.669,0.304 1.292,0.654 1.824,1.049 v -7.145 c -1.155,-0.441 -2.433,-0.776 -3.801,-0.988 -1.368,-0.213 -2.889,-0.32 -4.713,-0.32 -1.824,0 -3.497,0.198 -5.169,0.578 -1.673,0.38 -3.041,0.988 -4.257,1.824 -1.232,0.821 -2.129,1.825 -2.889,3.193 -0.714,1.277 -1.064,2.737 -1.064,4.561 0,2.281 0.654,4.257 1.976,5.777 1.308,1.673 3.345,2.889 5.93,4.105 1.049,0.426 1.976,0.852 2.888,1.262 0.913,0.411 1.673,0.837 2.281,1.277 0.654,0.441 1.171,0.928 1.52,1.445 0.38,0.517 0.578,1.125 0.578,1.824 0,0.487 -0.119,0.943 -0.35,1.368 -0.231,0.426 -0.593,0.791 -1.079,1.095 -0.487,0.304 -1.08,0.547 -1.824,0.73 -0.715,0.167 -1.521,0.258 -2.585,0.258 -1.672,0 -3.345,-0.289 -4.865,-0.866 -1.673,-0.578 -3.193,-1.445 -4.561,-2.585 z m -12.771,-18.7 h 9.73 v -6.233 h -27.214 v 6.233 h 9.73 v 27.822 h 7.754 z"
           fill="#ffffff"
           id="path20"
           style="stroke-width:1.00157;stroke-dasharray:none" /><g
           filter="url(#filter8_b_415_11747)"
           id="g21"
           style="stroke-width:1.00157;stroke-dasharray:none;filter:url(#filter8_b_415_11747-3)"><rect
             x="282.62701"
             y="440.79099"
             width="78.779701"
             height="78.779701"
             rx="14.0678"
             fill="#ffffff"
             fill-opacity="0.1"
             id="rect20"
             ry="14.0678"
             style="stroke-width:1.00157;stroke-dasharray:none" /><rect
             x="282.15799"
             y="440.32199"
             width="79.717499"
             height="79.717499"
             rx="14.5367"
             stroke="#ffffff"
             stroke-opacity="0.2"
             stroke-width="0.937853"
             id="rect21"
             ry="14.5367"
             style="stroke-width:1.00157;stroke-dasharray:none" /></g><g
           clip-path="url(#clip2_415_11747-3)"
           id="g22"
           style="stroke-width:1.00157;stroke-dasharray:none"><path
             d="m 322.093,453.657 c -15.068,0 -27.275,12.217 -27.275,27.275 0,12.057 7.815,22.276 18.644,25.882 1.369,0.257 1.864,-0.587 1.864,-1.316 0,-0.648 -0.016,-2.361 -0.026,-4.635 -7.591,1.643 -9.19,-3.667 -9.19,-3.667 -1.243,-3.144 -3.036,-3.987 -3.036,-3.987 -2.468,-1.686 0.196,-1.65 0.196,-1.65 2.734,0.185 4.173,2.804 4.173,2.804 2.433,4.173 6.382,2.966 7.946,2.264 0.238,-1.758 0.949,-2.967 1.723,-3.64 -6.055,-0.684 -12.422,-3.027 -12.422,-13.479 0,-2.985 1.057,-5.415 2.804,-7.325 -0.301,-0.683 -1.225,-3.462 0.241,-7.219 0,0 2.282,-0.728 7.5,2.797 2.184,-0.605 4.502,-0.906 6.819,-0.922 2.318,0.016 4.635,0.319 6.818,0.922 5.188,-3.525 7.469,-2.797 7.469,-2.797 1.464,3.757 0.54,6.534 0.274,7.219 1.73,1.91 2.787,4.342 2.787,7.325 0,10.475 -6.375,12.785 -12.437,13.452 0.948,0.816 1.836,2.495 1.836,5.044 0,3.648 -0.034,6.587 -0.034,7.475 0,0.709 0.477,1.561 1.882,1.287 10.91,-3.568 18.715,-13.796 18.715,-25.836 0,-15.057 -12.207,-27.275 -27.274,-27.275 z"
             fill="#ffffff"
             id="path21"
             style="stroke-width:1.00157;stroke-dasharray:none" /></g><g
           id="g32"
           transform="matrix(0.57463859,0,0,0.58368884,132.46306,419.29205)"
           style="display:inline;fill:#ffffff;fill-opacity:1;stroke-width:1.72939;stroke-dasharray:none"><path
             d="M 64,0 C 28.7,0 0,28.7 0,64 0,99.3 28.7,128 64,128 99.3,128 128,99.3 128,64 128,28.7 99.3,0 64,0 Z M 96.7,114.4 48.4,41.8 h -6.8 v 50.1 h 6.8 V 55.3 l 44.2,61.5 C 84.1,121.4 74.4,124 64,124 30.8,124.1 3.9,97.2 3.9,64 3.9,30.8 30.8,3.9 64,3.9 c 33.2,0 60.1,26.9 60.1,60.1 0,21.1 -10.9,39.7 -27.4,50.4 z"
             id="path1-5"
             style="display:inline;fill:#ffffff;fill-opacity:1;stroke-width:1.72939" /><path
             d="m 78.6,73.3 7.5,11.3 V 41.8 h -7.5 z"
             id="path2-89"
             style="display:inline;fill:#ffffff;fill-opacity:1;stroke-width:1.72939" /></g><g
           filter="url(#filter9_b_415_11747)"
           id="g23"
           style="stroke-width:1.00157;stroke-dasharray:none;filter:url(#filter9_b_415_11747-5)"><rect
             x="129.756"
             y="416.40701"
             width="78.779701"
             height="78.779701"
             rx="14.0678"
             fill="#ffffff"
             fill-opacity="0.1"
             id="rect22"
             ry="14.0678"
             style="stroke-width:1.00157;stroke-dasharray:none" /><rect
             x="129.287"
             y="415.93799"
             width="79.717499"
             height="79.717499"
             rx="14.5367"
             stroke="#ffffff"
             stroke-opacity="0.2"
             stroke-width="0.937853"
             id="rect23"
             ry="14.5367"
             style="stroke-width:1.00157;stroke-dasharray:none" /></g><g
           filter="url(#filter10_b_415_11747)"
           id="g25"
           style="stroke-width:1.00157;stroke-dasharray:none;filter:url(#filter10_b_415_11747-1)"><rect
             x="104.435"
             y="254.158"
             width="78.779701"
             height="78.779701"
             rx="14.0678"
             fill="#ffffff"
             fill-opacity="0.1"
             id="rect24"
             ry="14.0678"
             style="stroke-width:1.00157;stroke-dasharray:none" /><rect
             x="103.966"
             y="253.689"
             width="79.717499"
             height="79.717499"
             rx="14.5367"
             stroke="#ffffff"
             stroke-opacity="0.2"
             stroke-width="0.937853"
             id="rect25"
             ry="14.5367"
             style="stroke-width:1.00157;stroke-dasharray:none" /></g><path
           d="m 157.31334,304.07958 c -4.52001,9.10356 -12.43506,15.22868 -22.90643,17.24236 a 19.95335,19.656788 0 0 1 -4.90673,0.56402 c -6.02668,0 -11.55114,-2.4738 -14.23302,-6.52588 -3.60094,-5.39782 -4.82637,-16.8416 7.0462,-25.30693 0.24107,1.29132 0.73325,3.06256 1.0597,4.11145 a 19.205036,18.919596 0 0 0 -5.57971,6.44671 c -2.20978,4.27472 -1.9637,8.54449 0.65289,12.49267 1.808,2.66181 4.67068,4.27968 8.35198,4.77443 a 22.097845,21.76941 0 0 0 13.33404,-2.4738 c 6.38326,-3.30499 10.6371,-7.25317 13.41942,-12.65099 a 4.6807255,4.6111569 0 0 1 -1.3108,-2.96856 4.5802807,4.5122051 0 0 1 4.40952,-4.66557 h 0.17075 a 4.5953474,4.5270478 0 0 1 0.50223,9.02935 z m 14.39875,-9.99415 c 6.13215,6.84747 6.29789,14.9071 3.92739,19.58258 -2.20978,4.26977 -8.03558,8.54449 -15.87027,8.54449 a 25.352255,24.97545 0 0 1 -10.5467,-2.49853 c 1.15009,-0.80646 2.78232,-2.09778 3.6813,-2.90423 a 20.862375,20.552302 0 0 0 8.03559,1.69206 c 5.07245,0 8.91446,-2.33525 11.2046,-6.60503 1.47152,-2.82012 1.5569,-6.12512 0.16574,-9.50927 a 21.901978,21.576455 0 0 0 -8.67341,-10.31573 31.137873,30.675078 0 0 0 -17.44725,-5.23951 h -1.47151 a 4.6254808,4.5567334 0 0 1 -4.01779,2.74097 h -0.1557 a 4.5853029,4.5171526 0 0 1 -0.15066,-9.02936 h 0.16573 a 4.5200138,4.452834 0 0 1 4.01779,2.41938 h 1.31081 c 10.44625,0 19.61685,3.94817 25.82434,11.12218 z m -41.55901,11.37947 a 3.6712557,3.6166907 0 0 1 0.57253,-2.34021 c -4.58028,-7.8172 -7.03113,-17.72722 -3.26948,-28.04296 2.69695,-7.75288 9.48701,-12.99238 16.84961,-12.99238 7.85478,0 16.03601,6.77326 17.01534,19.825 -1.22542,-0.40075 -3.01334,-0.98951 -4.0881,-1.20721 -0.26618,-4.26977 -3.92739,-14.90709 -12.60079,-14.74878 -3.10877,0.0841 -7.68905,1.53376 -10.04447,4.51222 a 21.942156,21.616034 0 0 0 -4.84145,12.49267 29.937558,29.492603 0 0 0 4.25384,17.8905 1.3811153,1.3605881 0 0 1 0.57254,-0.0792 h 0.1607 a 4.5810303,4.5129435 0 0 1 0.16574,9.02441 h -0.16574 a 4.6003696,4.5319954 0 0 1 -4.58027,-4.34893 z"
           fill="#764abc"
           id="path2-8"
           style="fill:#ffffff;fill-opacity:1;stroke:none;stroke-width:1.00157;stroke-dasharray:none;stroke-opacity:1" /><g
           filter="url(#filter11_b_415_11747)"
           id="g27"
           style="stroke-width:1.00157;stroke-dasharray:none;filter:url(#filter11_b_415_11747-6)"><rect
             x="322.95499"
             y="559.89801"
             width="78.779701"
             height="78.779701"
             rx="14.0678"
             fill="#ffffff"
             fill-opacity="0.1"
             id="rect26"
             ry="14.0678"
             style="stroke-width:1.00157;stroke-dasharray:none" /><rect
             x="322.48599"
             y="559.42999"
             width="79.717499"
             height="79.717499"
             rx="14.5367"
             stroke="#ffffff"
             stroke-opacity="0.2"
             stroke-width="0.937853"
             id="rect27"
             ry="14.5367"
             style="stroke-width:1.00157;stroke-dasharray:none" /></g><path
           d="m 336.09,568.339 c -0.567,0 -0.99,0.462 -0.939,1.027 l 4.782,53.648 c 0.051,0.565 0.539,1.152 1.086,1.304 l 20.296,5.635 c 0.547,0.152 1.441,0.152 1.988,0 l 20.358,-5.644 c 0.547,-0.152 1.036,-0.738 1.086,-1.303 l 4.791,-53.64 c 0.051,-0.565 -0.373,-1.027 -0.94,-1.027 z m 43.262,12.304 c -0.045,0.504 -0.123,1.379 -0.174,1.944 l -0.126,1.407 c -0.05,0.565 -0.123,1.373 -0.161,1.796 -0.038,0.422 -0.074,0.768 -0.08,0.768 -0.007,0 -0.476,0 -1.044,0 h -14.391 c -0.568,0 -1.037,0 -1.043,0 -0.006,0 -0.475,0 -1.043,0 h -7.579 c -0.567,0 -0.99,0.462 -0.94,1.027 l 0.442,4.942 c 0.051,0.565 0.556,1.027 1.124,1.027 h 6.954 c 0.567,0 1.036,0 1.042,0 0.007,0 0.476,0 1.043,0 h 11.953 c 0.567,0 1.445,0 1.951,0 0.505,0 0.881,0.413 0.836,0.917 -0.046,0.504 -0.125,1.379 -0.175,1.944 l -1.422,15.932 c -0.051,0.565 -0.115,1.287 -0.143,1.604 -0.028,0.317 -0.498,0.701 -1.045,0.852 l -11.993,3.326 c -0.546,0.151 -1.001,0.277 -1.009,0.278 -0.009,0.002 -0.463,-0.12 -1.01,-0.272 l -12.005,-3.331 c -0.547,-0.152 -1.035,-0.739 -1.086,-1.304 l -0.773,-8.674 c -0.05,-0.565 0.373,-1.027 0.941,-1.027 h 1.095 c 0.568,0 1.496,0 2.063,0 h 1.634 c 0.567,0 1.073,0.462 1.123,1.027 l 0.303,3.396 c 0.051,0.565 0.54,1.148 1.088,1.296 l 5.616,1.517 c 0.547,0.148 0.997,0.269 1,0.269 0.002,0 0.452,-0.122 1,-0.27 l 5.626,-1.52 c 0.547,-0.148 1.037,-0.731 1.088,-1.296 l 0.61,-6.803 c 0.05,-0.565 -0.372,-1.027 -0.94,-1.027 h -6.326 c -0.567,0 -1.036,0 -1.043,0 -0.006,0 -0.475,0 -1.042,0 H 348.09 c -0.568,0 -1.073,-0.463 -1.123,-1.028 l -1.497,-16.773 c -0.051,-0.565 -0.129,-1.44 -0.174,-1.944 -0.045,-0.504 0.383,-0.917 0.95,-0.917 h 15.045 c 0.567,0 1.036,0 1.042,0 0.007,0 0.476,0 1.043,0 h 15.026 c 0.568,0 0.995,0.413 0.95,0.917 z"
           fill="#ffffff"
           id="path27"
           style="stroke-width:1.00157;stroke-dasharray:none" /><g
           filter="url(#filter11_b_415_11747)"
           id="g33"
           style="stroke-width:1.00157;stroke-dasharray:none;filter:url(#filter11_b_415_11747-6)"
           transform="translate(150.59603,-478.43203)"><rect
             x="322.95499"
             y="559.89801"
             width="78.779701"
             height="78.779701"
             rx="14.0678"
             fill="#ffffff"
             fill-opacity="0.1"
             id="rect32"
             ry="14.0678"
             style="stroke-width:1.00157;stroke-dasharray:none" /><rect
             x="322.48599"
             y="559.42999"
             width="79.717499"
             height="79.717499"
             rx="14.5367"
             stroke="#ffffff"
             stroke-opacity="0.2"
             stroke-width="0.937853"
             id="rect33"
             ry="14.5367"
             style="stroke-width:1.00157;stroke-dasharray:none" /></g><path
           fill="#68217a"
           d="m 529.41331,86.805478 16.9991,6.52662 v 52.372152 l -17.11057,6.57968 -27.31003,-25.84117 -17.27777,12.78793 -6.85537,-3.28984 v -32.79229 l 6.85537,-3.13066 17.27777,12.89406 z m -44.69927,23.028892 v 19.89823 l 10.31093,-10.08177 z m 26.80842,9.81646 17.77938,13.31855 v -26.69017 z"
           id="path1-6"
           style="fill:#ffffff;fill-opacity:1;stroke-width:1.00157;stroke-dasharray:none" /><g
           filter="url(#filter11_b_415_11747)"
           id="g36"
           style="stroke-width:1.00157;stroke-dasharray:none;filter:url(#filter11_b_415_11747-6)"
           transform="translate(178.39838,-56.763122)"><rect
             x="322.95499"
             y="559.89801"
             width="78.779701"
             height="78.779701"
             rx="14.0678"
             fill="#ffffff"
             fill-opacity="0.1"
             id="rect35"
             ry="14.0678"
             style="stroke-width:1.00157;stroke-dasharray:none" /><rect
             x="322.48599"
             y="559.42999"
             width="79.717499"
             height="79.717499"
             rx="14.5367"
             stroke="#ffffff"
             stroke-opacity="0.2"
             stroke-width="0.937853"
             id="rect36"
             ry="14.5367"
             style="stroke-width:1.00157;stroke-dasharray:none" /></g><g
           id="g37"
           transform="matrix(0.57363931,0,0,0.5879099,503.77548,509.37954)"
           style="fill:#ffffff;fill-opacity:1;stroke-width:1.72468"><path
             fill="#1fa6ca"
             d="M 0.2,68.6 V 13.4 L 48,41 V 59.4 L 16.1,41 V 77.8 Z M 48,41 95.9,13.4 V 68.7 L 64,87 48,77.8 80,59.4 V 41 L 48,59.4 Z"
             id="path1-86"
             style="fill:#ffffff;fill-opacity:1;stroke-width:1.72468" /><path
             fill="#1fa6ca"
             d="m 48,77.8 v 18.4 l 32,18.4 V 96.2 Z M 80,114.6 127.8,87 V 50.2 l -16,9.2 V 77.8 L 80,96.2 Z M 111.9,41 V 22.6 l 16,-9.2 v 18.4 z"
             id="path2-7"
             style="fill:#ffffff;fill-opacity:1;stroke-width:1.72468" /></g><g
           filter="url(#filter11_b_415_11747)"
           id="g38"
           style="stroke-width:1.00157;stroke-dasharray:none;filter:url(#filter11_b_415_11747-6)"
           transform="translate(243.27052,-267.59758)"><rect
             x="322.95499"
             y="559.89801"
             width="78.779701"
             height="78.779701"
             rx="14.0678"
             fill="#ffffff"
             fill-opacity="0.1"
             id="rect37"
             ry="14.0678"
             style="stroke-width:1.00157;stroke-dasharray:none" /><rect
             x="322.48599"
             y="559.42999"
             width="79.717499"
             height="79.717499"
             rx="14.5367"
             stroke="#ffffff"
             stroke-opacity="0.2"
             stroke-width="0.937853"
             id="rect38"
             ry="14.5367"
             style="stroke-width:1.00157;stroke-dasharray:none" /></g><path
           d="m 594.85757,329.68618 1.45231,-25.37125 a 0.86798439,0.89680027 0 0 1 0.70062,-0.82646 l 23.63414,-4.78587 a 0.86798439,0.89680027 0 0 1 1.00131,1.12833 l -4.41935,15.83469 a 0.86798439,0.89680027 0 0 0 0.99847,1.12831 l 6.77368,-1.34812 a 0.86798439,0.89680027 0 0 1 0.94173,1.28365 l -19.26018,39.71125 -0.34889,0.55684 a 0.83394573,0.86163159 0 0 1 -0.71481,0.4103 c -0.50207,0 -0.99279,-0.44546 -0.86514,-1.08143 l 3.10602,-15.53575 a 0.86798439,0.89680027 0 0 0 -1.10059,-1.0404 l -4.06477,1.27486 a 0.86798439,0.89680027 0 0 1 -1.10342,-1.03747 l 1.95722,-9.89118 a 0.86798439,0.89680027 0 0 0 -1.04952,-1.05506 l -6.5808,1.57085 a 0.86798439,0.89680027 0 0 1 -1.06086,-0.92609 z m 42.48018,-23.2289 -16.9569,3.18863 -1.54309,5.53027 5.89152,-1.17229 a 2.2692401,2.3445758 0 0 1 2.3827,1.08144 2.2692401,2.3445758 0 0 1 0.0964,2.29475 l -19.26301,39.71419 -0.0369,0.0733 -0.0426,0.0674 -0.34605,0.55685 a 2.2720768,2.3475065 0 0 1 -1.90617,1.08436 2.3429905,2.4207746 0 0 1 -1.79838,-0.88507 2.2692401,2.3445758 0 0 1 -0.45383,-1.96359 l 2.91881,-14.59791 -3.17695,0.99644 a 2.2976057,2.373883 0 0 1 -2.43943,-0.76784 2.2749133,2.3504373 0 0 1 -0.46803,-1.96359 l 1.78702,-9.02662 -5.74968,1.37158 a 2.2919326,2.3680217 0 0 1 -2.17847,-0.68286 2.2976057,2.373883 0 0 1 -0.61554,-1.75843 l 1.10342,-19.25483 -21.10392,-3.89786 a 1.7359688,1.7936005 0 0 0 -1.8154,2.65524 l 32.57778,59.0159 a 1.7359688,1.7936005 0 0 0 3.02377,-0.0117 L 639.16436,309.095 a 1.7359688,1.7936005 0 0 0 -1.82672,-2.63765 z"
           id="path1-2"
           style="fill:#ffffff;fill-opacity:1;stroke-width:1.00157" /></g></g></g></svg>
